<?xml version="1.0" encoding="UTF-8"?>
<!-- Generator: visioncortex VTracer 0.6.1 -->
<svg version="1.1" xmlns="http://www.w3.org/2000/svg" width="1204" height="1280">
<path d="M0 0 C397.32 0 794.64 0 1204 0 C1204 422.4 1204 844.8 1204 1280 C806.68 1280 409.36 1280 0 1280 C0 857.6 0 435.2 0 0 Z " fill="#FCFDFF" transform="translate(0,0)"/>
<path d="M0 0 C0.73008147 0.01284922 1.46016295 0.02569844 2.2123681 0.03893703 C3.38839331 0.02983381 3.38839331 0.02983381 4.58817661 0.02054667 C7.23181391 0.00623839 9.87396123 0.02777399 12.5175353 0.04896778 C14.42548296 0.04607282 16.33342834 0.04098442 18.24136499 0.03388387 C23.49756004 0.02072366 28.75325946 0.03887243 34.0094032 0.06198233 C39.67369571 0.08147054 45.33794841 0.07218682 51.00226125 0.06639332 C62.10811044 0.05956212 73.21376399 0.07928046 84.31957308 0.1075566 C97.25852351 0.13937008 110.19743917 0.14380573 123.13642307 0.14674853 C146.23721693 0.15281988 169.33791174 0.18192882 192.43866262 0.22484058 C214.8351485 0.26641735 237.23159393 0.29481869 259.62811574 0.30687183 C260.31694743 0.3072464 261.00577913 0.30762097 261.7154845 0.30800688 C267.25788175 0.31101548 272.80027902 0.31397673 278.34267633 0.31685072 C302.96744303 0.32965177 327.59219947 0.35368915 352.2169556 0.37956369 C356.08443219 0.38353903 359.95190895 0.38725929 363.81938586 0.39091772 C377.38015227 0.40398222 390.94090259 0.42040797 404.50165192 0.44590212 C410.10794648 0.45643168 415.71423224 0.46556 421.3205348 0.47047275 C426.46494274 0.4750673 431.60932163 0.4843196 436.75371548 0.49713419 C438.60317874 0.50099067 440.45264622 0.50326594 442.30211345 0.5036924 C448.03969071 0.50564253 453.77456943 0.54939607 459.51117238 0.65696949 C460.37775544 0.67209826 461.2443385 0.68722703 462.13718165 0.70281425 C464.75074828 0.75881685 467.36189187 0.84279646 469.97436723 0.9361195 C471.16233512 0.96030776 471.16233512 0.96030776 472.37430236 0.98498467 C477.10834208 1.19312736 479.74858966 1.84863276 483.01117238 5.34446949 C484.2146587 7.09048853 485.37794877 8.86455044 486.51117238 10.65696949 C487.76787098 12.27243849 489.02590606 13.88705414 490.30682668 15.4833855 C491.72584571 17.25336345 493.11993408 19.04087782 494.51117238 20.83275074 C497.68721023 24.90099336 500.93740112 28.90692333 504.19867238 32.90696949 C505.30414511 34.26373708 506.40961398 35.62050782 507.51507863 36.97728199 C508.29069143 37.92909351 508.29069143 37.92909351 509.08197317 38.90013355 C513.53714155 44.37662684 517.9247074 49.90385282 522.2684966 55.46898121 C527.51276186 62.18111649 532.88355525 68.77615443 538.31610402 75.33665699 C542.42166543 80.30533533 546.43611924 85.33499863 550.39789113 90.41868824 C553.87971215 94.87786252 557.4336531 99.2743118 561.01117238 103.65696949 C565.06099422 108.61929336 569.06916851 113.60855202 573.01117238 118.65696949 C578.09715084 125.16926366 583.30213377 131.58063319 588.52289113 137.98509449 C591.49534068 141.63238543 594.43416807 145.30561249 597.36664113 148.98509449 C599.60988154 151.77995139 601.87181874 154.55890574 604.13617238 157.33665699 C608.81111431 163.07211815 613.45657808 168.825347 618.01117238 174.65696949 C623.11566201 181.19147033 628.32774914 187.63552525 633.56585988 194.06321949 C634.06053762 194.67165699 634.55521535 195.28009449 635.06488332 195.90696949 C636.00553583 197.04515267 636.96131124 198.17106081 637.93402395 199.28196949 C640.52909741 202.25861557 642.29190907 204.88833743 643.51117238 208.65696949 C637.9369954 213.80349797 632.14283492 218.58240665 626.1591216 223.23631519 C621.56037829 226.81752398 617.02528972 230.46979527 612.51117238 234.15696949 C602.6647316 242.18837072 592.72652044 250.09761193 582.51117238 257.65696949 C577.13326543 253.59366201 573.13453665 248.84202189 569.0551177 243.52977222 C565.29047944 238.62750338 561.39988504 233.84736198 557.44867238 229.09446949 C552.53546474 223.16861094 547.79131273 217.15597181 543.13226613 211.02806324 C539.46437488 206.26023427 535.59417433 201.65671523 531.75555715 197.02635425 C527.63386064 192.04552817 523.60549788 187.00314311 519.63128957 181.90428394 C515.00445563 175.97986579 510.25213992 170.15950952 505.50335988 164.33275074 C501.80841426 159.79867261 498.15748347 155.23019329 494.51117238 150.65696949 C492.51195403 148.15634403 490.51154931 145.65666819 488.51117238 143.15696949 C483.01576242 136.28982915 483.01576242 136.28982915 480.42132863 133.03587574 C476.93266441 128.66213813 473.41791908 124.31092541 469.8832427 119.9743523 C464.34020956 113.17168497 458.85248799 106.33108546 453.43695363 99.42650074 C452.76811914 98.60492326 452.76811914 98.60492326 452.08577284 97.76674825 C450.51117238 95.65696949 450.51117238 95.65696949 448.60539326 92.49708563 C445.45079234 87.48902182 442.75401102 83.41070615 436.98733482 81.47273558 C432.72841023 81.05739451 428.63957262 81.0432538 424.37060842 81.17830127 C422.76461401 81.18087779 421.1586012 81.1775935 419.55262813 81.16892308 C415.21318577 81.16113751 410.87823449 81.23220968 406.53974989 81.31696722 C401.92812247 81.39249008 397.31650411 81.39237534 392.70435247 81.39887279 C385.05104073 81.41738046 377.39897623 81.47475692 369.74611196 81.55814594 C359.37819503 81.66734761 349.01391957 81.65352002 338.64581594 81.58403248 C337.04223048 81.5737769 335.43864484 81.56354939 333.83505902 81.55335003 C331.44041121 81.53801167 329.04576433 81.52258408 326.6511199 81.5067255 C317.7085966 81.4491761 308.76604767 81.43061958 299.82336721 81.41542286 C299.00403039 81.4139714 298.18469357 81.41251994 297.34052837 81.4110245 C292.29584582 81.4022045 287.25116222 81.39446683 282.20647714 81.38725805 C279.58858531 81.38348593 276.97069383 81.37952 274.35280237 81.37550539 C257.8895596 81.35040981 241.42631495 81.32849687 224.96305761 81.31577724 C221.2419539 81.31285128 217.52085023 81.30988882 213.7997466 81.30687183 C212.87574179 81.30612578 211.95173698 81.30537973 210.99973202 81.30461107 C195.81583949 81.29177871 180.63205916 81.25823541 165.44821984 81.21707 C149.69096138 81.17470858 133.93376152 81.15109679 118.17644629 81.14585668 C109.39350963 81.14245636 100.61075574 81.13084633 91.82787618 81.09775394 C84.41416525 81.06984631 77.00067577 81.0587184 69.58691633 81.0699494 C65.81437912 81.07514129 62.04230733 81.0722086 58.26983747 81.04748386 C54.18595577 81.02093501 50.1031044 81.0330166 46.01916799 81.04896778 C44.82802066 81.03508569 43.63687333 81.0212036 42.40963063 81.00690085 C35.65778766 80.97482582 35.65778766 80.97482582 29.86931524 84.03823131 C27.57909514 86.58154068 25.32478885 89.099299 23.19867238 91.78196949 C22.42652395 92.74618824 21.65437551 93.71040699 20.85882863 94.70384449 C19.69673879 96.16564136 19.69673879 96.16564136 18.51117238 97.65696949 C13.73923434 103.54321036 8.91630722 109.38152771 4.01117238 115.15696949 C-0.03883273 119.92618644 -4.03234617 124.73609065 -7.98492137 129.58665699 C-15.79674709 139.16558838 -23.64855599 148.70926901 -31.65630808 158.12523121 C-35.22214782 162.32382624 -38.70857371 166.58284947 -42.18414012 170.85618824 C-44.70915836 173.92472736 -47.28367531 176.94736761 -49.86382762 179.96946949 C-53.64675254 184.40548552 -57.29415498 188.92297592 -60.86382762 193.53196949 C-65.3133057 199.26945439 -69.98786903 204.77260414 -74.76885691 210.23558277 C-83.05717997 219.61321761 -83.05717997 219.61321761 -90.48882762 229.65696949 C-89.97831715 234.12094265 -87.00239494 236.81872863 -84.11382762 240.03196949 C-79.83129228 244.90029907 -75.70324986 249.83858684 -71.73882762 254.96946949 C-68.12429075 259.63217088 -64.3913272 264.10849717 -60.42632762 268.48118824 C-57.10902913 272.20646094 -54.00059146 276.10174967 -50.85796824 279.9743523 C-48.12197441 283.33677553 -45.36797376 286.68441112 -42.61382762 290.03196949 C-42.01409129 290.7610149 -41.41435496 291.49006031 -40.7964448 292.241198 C-36.6567006 297.26379689 -32.46811761 302.24191675 -28.24883738 307.19774097 C-25.62568216 310.28714855 -23.06472095 313.41531077 -20.55132762 316.59446949 C-17.29629704 320.70503171 -13.91374374 324.68837379 -10.48882762 328.65696949 C-6.471056 333.31512964 -2.54919357 338.02416272 1.26898488 342.84837574 C9.10608772 352.66523452 17.15337247 362.31112253 25.37103567 371.81102222 C29.0386855 376.06377623 32.55201972 380.42076573 35.98773488 384.86400074 C37.40175029 386.76560704 37.40175029 386.76560704 39.51117238 387.65696949 C39.51117238 388.31696949 39.51117238 388.97696949 39.51117238 389.65696949 C40.34600494 389.64956494 40.34600494 389.64956494 41.1977028 389.64201081 C74.20749564 389.35089031 107.21696588 389.12794249 140.22775539 388.9931202 C144.19421881 388.97686165 148.16067963 388.9600354 152.12713918 388.94285816 C152.91676668 388.93944812 153.70639418 388.93603809 154.51994979 388.93252472 C167.29401319 388.87600662 180.06731354 388.77353619 192.84092475 388.65398314 C205.95472414 388.53227277 219.06812483 388.46017638 232.18246582 388.43381906 C240.27071193 388.41600885 248.35680124 388.35983499 256.44438308 388.25405542 C262.65353048 388.1769974 268.86104516 388.16908573 275.07060537 388.18656963 C277.61234775 388.18299912 280.1541733 388.1572155 282.69542798 388.10729831 C302.89029445 387.73014232 302.89029445 387.73014232 308.36539564 392.45255703 C311.28790616 395.56878491 313.35580346 398.98047713 315.51117238 402.65696949 C317.02147964 404.55732027 318.55856523 406.43710722 320.13617238 408.28196949 C322.32078513 410.96238087 324.50192473 413.64559288 326.68304738 416.32884449 C330.74523396 421.31294575 334.84903176 426.2563497 339.01117238 431.15696949 C343.06117749 435.92618644 347.05469094 440.73609065 351.00726613 445.58665699 C354.12460212 449.40916258 357.25310179 453.22235435 360.38617238 457.03196949 C360.9883257 457.76423755 361.59047902 458.49650562 362.21087942 459.25096363 C365.83508719 463.64913655 369.49782206 468.01072012 373.19867238 472.34446949 C376.87801351 476.6548604 380.41492307 481.05261594 383.88617238 485.53196949 C388.34414066 491.28004312 393.02855732 496.79239372 397.81756887 502.26634449 C401.6599396 506.66088828 405.400267 511.12274303 409.07757863 515.65696949 C412.16423941 519.46203445 415.27308466 523.24851184 418.38617238 527.03196949 C418.98703664 527.76222339 419.5879009 528.4924773 420.20697317 529.24486011 C424.32663479 534.24230004 428.49107247 539.19908073 432.68524465 544.13402027 C436.17534135 548.2455354 439.60056498 552.40598258 443.00726613 556.58665699 C450.84013938 566.19139704 458.71565993 575.7576331 466.74896535 585.19554371 C470.05528205 589.09030387 473.24841811 593.06367831 476.42132863 597.06712574 C478.88303122 600.11779641 481.40950683 603.10824315 483.94867238 606.09446949 C487.49039131 610.26495405 491.02236613 614.44203771 494.51117238 618.65696949 C495.21242238 619.50259449 495.91367238 620.34821949 496.63617238 621.21946949 C500.24194161 625.90696949 500.24194161 625.90696949 501.51117238 628.65696949 C500.46072143 632.59415589 497.21198907 635.80481439 494.69867238 638.96946949 C494.21656301 639.58048511 493.73445363 640.19150074 493.23773488 640.82103199 C489.09311003 646.02566319 484.74927384 651.04065487 480.35858449 656.03782886 C476.19192465 660.80396805 472.27055776 665.72208256 468.40057668 670.73021168 C464.99667577 675.1088859 461.36951968 679.22432155 457.61664113 683.30931324 C454.82691992 686.41993002 452.2574341 689.68146755 449.67132863 692.96165699 C447.1929982 696.05396802 444.6420224 699.07691244 442.07367238 702.09446949 C438.00126722 706.88345131 433.98635172 711.71314475 430.01507863 716.58665699 C422.20451974 726.16403498 414.3522628 735.70449906 406.34808645 745.12083668 C401.99940088 750.24319499 397.74933479 755.44311502 393.51117238 760.65696949 C388.73145488 766.53705361 383.91643641 772.3813756 379.01117238 778.15696949 C374.96116727 782.92618644 370.96765383 787.73609065 367.01507863 792.58665699 C359.20325291 802.16558838 351.35144401 811.70926901 343.34369192 821.12523121 C339.78325255 825.31746758 336.30203598 829.56999382 332.83148488 833.83665699 C329.79241155 837.53061482 326.69597636 841.17458937 323.57953176 844.80345386 C322.93854543 845.55465503 322.93854543 845.55465503 322.28460988 846.32103199 C321.85150701 846.80706148 321.41840414 847.29309097 320.97217694 847.79384863 C319.42862082 849.63540608 319.42862082 849.63540608 318.37836674 851.91297221 C316.70242258 854.87106673 315.25054348 856.61179356 312.51117238 858.65696949 C306.18751133 860.0429517 299.92077711 859.84227399 293.47365102 859.75271839 C291.49054216 859.75807567 289.50744069 859.76738166 287.52436665 859.78029704 C282.07457986 859.80431831 276.62634443 859.77215697 271.17671415 859.73087817 C265.30006521 859.69615098 259.42354173 859.71333364 253.54683217 859.72415394 C242.03517805 859.73720614 230.52413442 859.70252338 219.01260198 859.65226503 C209.66020856 859.61237595 200.30790259 859.59316934 190.95542249 859.58874172 C190.29103771 859.58841331 189.62665294 859.58808491 188.94213529 859.58774655 C185.56791963 859.5861572 182.19370392 859.58486341 178.8194881 859.58366934 C154.92109253 859.57454248 131.02296437 859.52218444 107.12469777 859.44578785 C83.91863565 859.37164559 60.7127076 859.32205256 37.50653371 859.30223316 C36.79143981 859.30161555 36.07634591 859.30099794 35.3395825 859.30036162 C29.58683424 859.2954016 23.83408592 859.29051517 18.08133749 859.28576956 C-5.39563305 859.26631956 -28.87257668 859.22861942 -52.34951609 859.1863752 C-58.36227928 859.17555668 -64.37504268 859.16536676 -70.38780847 859.15614146 C-84.43621531 859.13431878 -98.48456512 859.10614653 -112.53291427 859.05959102 C-118.34395115 859.0403794 -124.15495114 859.02419867 -129.96601573 859.0165047 C-135.27979807 859.00930735 -140.59346679 858.99287703 -145.90719897 858.9688528 C-147.8350331 858.96172678 -149.76288309 858.95797692 -151.69073039 858.95784488 C-154.30056943 858.95712974 -156.91006862 858.94426954 -159.5198516 858.92820495 C-160.65621683 858.93222705 -160.65621683 858.93222705 -161.81553894 858.93633041 C-165.51879681 858.90010612 -168.40171276 858.81379051 -171.48882762 856.65696949 C-173.23230414 854.64862424 -174.83711096 852.65557186 -176.42632762 850.53196949 C-177.40281735 849.25747743 -178.38074025 847.98408245 -179.35992137 846.71165699 C-179.87022898 846.04617847 -180.3805366 845.38069996 -180.90630808 844.69505543 C-183.54162736 841.30109595 -186.26681561 837.98149335 -188.98882762 834.65696949 C-193.02172604 829.71820729 -197.00695061 824.74875857 -200.92632762 819.71946949 C-205.02820685 814.45941259 -209.23460799 809.29446585 -213.48882762 804.15696949 C-218.20180194 798.46547008 -222.83335606 792.72372503 -227.37554637 786.89525074 C-230.8573663 782.43607784 -234.41125118 778.03957924 -237.98882762 773.65696949 C-242.02093505 768.71754927 -246.00698292 763.7488131 -249.92632762 758.71946949 C-254.70047099 752.59630374 -259.62616207 746.60564148 -264.57622996 740.62425464 C-267.99131052 736.49239384 -271.34108594 732.3259687 -274.60210887 728.07103199 C-277.26516929 724.66363791 -280.00481517 721.32004047 -282.73882762 717.96946949 C-286.87157583 712.90274023 -290.9652276 707.81081918 -294.98882762 702.65696949 C-299.46563339 696.92341594 -304.03702285 691.27230744 -308.63750926 685.63768238 C-312.75367277 680.58689244 -316.79782187 675.48405653 -320.79058543 670.33519214 C-323.16522804 667.28551067 -325.61711231 664.37065434 -328.23882762 661.53196949 C-330.48882762 658.65696949 -330.48882762 658.65696949 -330.33721629 656.66893238 C-329.31377657 654.24183404 -328.21410206 653.23438025 -326.16460887 651.59056324 C-325.47294627 651.02845142 -324.78128367 650.4663396 -324.0686616 649.8871941 C-322.94633128 648.99979542 -322.94633128 648.99979542 -321.80132762 648.09446949 C-321.03183787 647.47386646 -320.26234812 646.85326343 -319.46954051 646.21385425 C-317.15164118 644.3499098 -314.82286738 642.5006477 -312.48882762 640.65696949 C-311.85622019 640.15681324 -311.22361277 639.65665699 -310.57183543 639.14134449 C-308.29662141 637.3463834 -306.01815389 635.55578348 -303.73247996 633.77415699 C-299.24688558 630.27470269 -294.83121017 626.69479051 -290.42632762 623.09446949 C-283.54998486 617.47724592 -276.56256798 612.02283761 -269.48882762 606.65696949 C-265.48754878 609.60265248 -262.5208013 612.90581584 -259.55132762 616.84446949 C-255.34635177 622.31412697 -251.02888432 627.66810298 -246.61382762 632.96946949 C-241.86951593 638.68172982 -237.27812612 644.48289553 -232.80132762 650.40696949 C-228.52800629 656.06147554 -224.12752953 661.54866142 -219.50713816 666.92235035 C-215.79450699 671.252968 -212.26452327 675.70728252 -208.76055613 680.2075066 C-205.16317385 684.82014017 -201.49690251 689.37270144 -197.80132762 693.90696949 C-197.24606394 694.58848072 -196.69080027 695.26999195 -196.11871043 695.97215503 C-195.05184473 697.2815047 -193.98495143 698.59083188 -192.91802683 699.90013355 C-188.44817351 705.39467822 -184.04601129 710.94114169 -179.68121043 716.51927418 C-173.05456757 724.98430628 -166.2866214 733.32907441 -159.48882762 741.65696949 C-152.18896442 750.59994374 -144.93485087 759.57068761 -137.82867137 768.66868824 C-137.05652293 769.65482105 -136.28437449 770.64095386 -135.48882762 771.65696949 C-134.76824168 772.5915398 -134.04765574 773.52611011 -133.30523387 774.48900074 C-131.67110815 776.73182393 -131.67110815 776.73182393 -129.48882762 777.65696949 C-127.30026774 777.75743414 -125.1085563 777.79089843 -122.91769686 777.79563469 C-122.23159783 777.7984769 -121.5454988 777.80131912 -120.83860889 777.80424747 C-118.51671152 777.81263516 -116.19486377 777.81386585 -113.87295237 777.81518787 C-112.2006809 777.81975045 -110.52841057 777.82475002 -108.8561416 777.83015144 C-104.24302541 777.84377657 -99.62991662 777.85116351 -95.01678553 777.8575781 C-90.04880359 777.86556289 -85.08083714 777.87926724 -80.11286631 777.89229053 C-71.49958871 777.91408062 -62.88630956 777.93221582 -54.27301875 777.94789547 C-41.8195188 777.97057108 -29.36603599 777.99871708 -16.91255055 778.02821475 C3.29053183 778.07591901 23.4936212 778.1191755 43.69671926 778.15965503 C63.32660761 778.19899555 82.95648974 778.2404183 102.5863677 778.28465503 C104.40017934 778.28874144 104.40017934 778.28874144 106.25063364 778.2929104 C112.31664131 778.30658964 118.38264888 778.32030996 124.44865641 778.33405071 C174.80281543 778.44806001 225.15698792 778.5548595 275.51117238 778.65696949 C275.79549123 778.0535271 276.07981008 777.45008472 276.37274465 776.82835621 C277.96819495 773.78526486 280.20095077 771.35324153 282.44867238 768.78196949 C286.49591643 764.08471963 290.4009753 759.30801998 294.19867238 754.40696949 C297.83133188 749.73058147 301.57950597 745.23472276 305.56195363 740.84837574 C308.51709198 737.52606589 311.29195004 734.06224177 314.09320363 730.61009449 C316.69806462 727.42871339 319.34785379 724.2893612 322.01117238 721.15696949 C326.91682542 715.38171273 331.73146321 709.53704336 336.51117238 703.65696949 C341.29088989 697.77688537 346.10590836 691.93256338 351.01117238 686.15696949 C355.06117749 681.38775254 359.05469094 676.57784833 363.00726613 671.72728199 C366.12460218 667.90477632 369.25311821 664.09159822 372.38617238 660.28196949 C372.98470022 659.55405201 373.58322805 658.82613453 374.19989309 658.07615894 C377.47248197 654.10448447 380.76948054 650.15633995 384.10834035 646.24022144 C386.254552 643.72236333 388.3848496 641.1916589 390.51117238 638.65696949 C391.18664113 637.85259449 391.86210988 637.04821949 392.55804738 636.21946949 C393.12007863 635.51821949 393.68210988 634.81696949 394.26117238 634.09446949 C394.73039113 633.51568043 395.19960988 632.93689136 395.68304738 632.34056324 C396.65425383 630.69491344 396.65425383 630.69491344 396.46429738 628.82103199 C395.05219023 625.61485426 392.80944205 623.19141043 390.51117238 620.59446949 C389.49610342 619.42193785 388.48178998 618.24875175 387.46820363 617.07493824 C386.9636968 616.49405445 386.45918996 615.91317066 385.93939504 615.31468433 C383.98427297 613.0454059 382.08839422 610.7308647 380.19867238 608.40696949 C371.66401412 597.93331015 363.0985931 587.48744383 354.34808645 577.1931023 C349.2566212 571.19581669 344.30129993 565.08942856 339.33929738 558.98509449 C335.27711157 554.00099416 331.17335296 549.05755493 327.01117238 544.15696949 C321.36276266 537.50648569 315.8429409 530.75576385 310.33929738 523.98509449 C306.2771108 519.00099322 302.173313 514.05758927 298.01117238 509.15696949 C293.97130203 504.39968706 289.98616681 499.60321944 286.04632863 494.76243824 C284.02242843 492.27760838 281.98507761 489.80412147 279.94476613 487.33275074 C279.316751 486.5718816 278.68873586 485.81101246 278.04168996 485.02708668 C276.79348009 483.51548133 275.54464267 482.00439391 274.29510793 480.49388355 C273.71929983 479.79617847 273.14349172 479.09847339 272.55023488 478.37962574 C272.03670461 477.75837818 271.52317434 477.13713062 270.99408254 476.49705738 C269.51117238 474.65696949 269.51117238 474.65696949 268.19802651 472.57265455 C266.69162794 470.49201333 266.69162794 470.49201333 264.45385584 470.16066748 C263.25830234 470.16326781 263.25830234 470.16326781 262.03859624 470.16592067 C261.11732356 470.15817328 260.19605087 470.15042588 259.24686083 470.14244372 C258.23316384 470.15429685 257.21946686 470.16614999 256.17505178 470.17836231 C255.09936964 470.17509445 254.0236875 470.1718266 252.91540894 470.16845971 C249.29244444 470.16218442 245.67020125 470.18442936 242.0473052 470.20628589 C239.4572683 470.20737372 236.86723007 470.20662321 234.27719411 470.20416492 C228.69013294 470.20130253 223.10323979 470.21239137 217.51621541 470.23224491 C209.43065744 470.26043193 201.34527313 470.260971 193.25967783 470.25356184 C180.1319051 470.24172787 167.00417651 470.24332519 153.87640676 470.25755543 C152.69742233 470.25882331 152.69742233 470.25882331 151.49462003 470.2601168 C142.72884994 470.26983965 133.96308941 470.28280106 125.19732961 470.29936451 C122.02069394 470.30532198 118.84405821 470.31124978 115.66742238 470.31712574 C114.49169112 470.31931021 114.49169112 470.31931021 113.29220772 470.32153882 C100.21893052 470.34518557 87.1457667 470.34560852 74.07248101 470.32785207 C66.00857082 470.31789835 57.94516939 470.32800878 49.88133079 470.36395888 C43.7001122 470.38988566 37.51927088 470.3850405 31.33802709 470.3688435 C28.80278427 470.36726031 26.26751106 470.37598901 23.73234472 470.39574474 C20.27263728 470.42126378 16.8149244 470.40997054 13.35522756 470.38954395 C12.35045346 470.40585853 11.34567936 470.42217311 10.31045756 470.43898207 C4.35423843 470.35611257 1.13487738 469.40569753 -3.13892379 465.16992646 C-4.91021982 463.18467785 -6.63023971 461.21588703 -8.23882762 459.09446949 C-11.37795693 455.05063946 -14.60500222 451.1131007 -17.92632762 447.21946949 C-23.5992517 440.55100475 -29.13840163 433.77871656 -34.66070262 426.98509449 C-38.7228892 422.00099322 -42.826687 417.05758927 -46.98882762 412.15696949 C-51.03883273 407.38775254 -55.03234617 402.57784833 -58.98492137 397.72728199 C-62.10225735 393.9047764 -65.23075702 390.09158462 -68.36382762 386.28196949 C-68.96598094 385.54970142 -69.56813426 384.81743335 -70.18853465 384.06297535 C-73.81274242 379.66480243 -77.47547729 375.30321885 -81.17632762 370.96946949 C-84.85566318 366.65908509 -88.39270774 362.26141756 -91.86382762 357.78196949 C-96.26566755 352.10327202 -100.8997937 346.67269076 -105.64141551 341.27611011 C-109.82924317 336.48432278 -113.77750626 331.5426172 -117.67193308 326.51121753 C-120.80885866 322.47448659 -124.10219751 318.63440893 -127.53960887 314.84837574 C-130.49354068 311.52742233 -133.26739144 308.06518391 -136.06695262 304.61400074 C-138.69208361 301.40880047 -141.36575588 298.24896524 -144.05132762 295.09446949 C-147.92139909 290.54426005 -151.68843145 285.928635 -155.39898387 281.24681324 C-157.86067988 278.1961507 -160.38693887 275.20549755 -162.92632762 272.21946949 C-167.85452371 266.42447971 -172.68847546 260.55847769 -177.48882762 254.65696949 C-178.98825854 252.82317069 -180.48826219 250.98984006 -181.98882762 249.15696949 C-182.71843699 248.25849293 -183.44804637 247.36001636 -184.19976512 246.43431324 C-185.80387643 244.48802801 -187.43676714 242.56527337 -189.09039012 240.66087574 C-189.92312449 239.69021168 -190.75585887 238.71954761 -191.61382762 237.71946949 C-192.37953074 236.84419605 -193.14523387 235.96892261 -193.93414012 235.06712574 C-195.48882762 232.65696949 -195.48882762 232.65696949 -195.25933543 230.73460621 C-194.38981269 228.38998057 -193.32240174 226.91728864 -191.71539012 225.00462574 C-191.14328807 224.31707203 -190.57118601 223.62951832 -189.98174754 222.92112964 C-189.05712718 221.83130787 -189.05712718 221.83130787 -188.11382762 220.71946949 C-187.48258982 219.96456226 -186.85135203 219.20965503 -186.20098582 218.43187183 C-184.30425513 216.16728309 -182.39814653 213.9109491 -180.48882762 211.65696949 C-179.4692822 210.4499502 -178.44974972 209.24291999 -177.43023387 208.03587574 C-176.0630296 206.41920077 -174.69467725 204.80355398 -173.32330027 203.19041675 C-169.76033652 198.99679921 -166.27817038 194.74154638 -162.80523387 190.47337574 C-160.21095496 187.31911757 -157.57276496 184.20493969 -154.92632762 181.09446949 C-151.05336396 176.54054518 -147.28260066 171.92201896 -143.57085887 167.23509449 C-141.15798755 164.24729886 -138.67089843 161.32637987 -136.17632762 158.40696949 C-132.26583419 153.82783542 -128.49443322 149.1629595 -124.80132762 144.40696949 C-121.16812265 139.73097677 -117.4205346 135.23476744 -113.43804637 130.84837574 C-110.48290802 127.52606589 -107.70804996 124.06224177 -104.90679637 120.61009449 C-102.3019372 117.4287156 -99.65222545 114.28929166 -96.98882762 111.15696949 C-92.86883081 106.30890968 -88.82086462 101.40850692 -84.80523387 96.47337574 C-82.21095496 93.31911757 -79.57276496 90.20493969 -76.92632762 87.09446949 C-73.7214357 83.3260801 -70.56195067 79.53450921 -67.48882762 75.65696949 C-64.41569953 71.77942342 -61.25609376 67.98797088 -58.05132762 64.21946949 C-53.97914276 59.43029691 -49.96401154 54.60079985 -45.99273387 49.72728199 C-38.1858075 40.15435824 -30.33795156 30.61760297 -22.33672801 21.20628589 C-14.65185641 12.45346551 -14.65185641 12.45346551 -7.84686133 3.04325277 C-5.17936466 0.34379912 -3.73100197 0.06393592 0 0 Z " fill="#8B1637" transform="translate(449.48882761597633,223.34303051233292)"/>
<path d="M0 0 C1.45211634 -0.00955262 1.45211634 -0.00955262 2.93356836 -0.01929823 C6.20305701 -0.03463354 9.47135589 -0.01407714 12.74080467 0.00609493 C15.09809674 0.00248495 17.45538631 -0.00331529 19.8126682 -0.01112705 C24.95091863 -0.02308012 30.0889172 -0.01940568 35.22714233 -0.00211811 C42.86759414 0.0235174 50.50784728 0.0205962 58.14832749 0.01183931 C71.00044288 -0.00203766 83.8524409 0.00767676 96.70453835 0.03104496 C109.43418042 0.05417186 122.1637706 0.06785097 134.89343452 0.06856251 C135.68447333 0.06861596 136.47551213 0.06866941 137.29052181 0.06872447 C140.50136098 0.06891307 143.71220014 0.06903465 146.92303931 0.0690668 C177.0579294 0.06940781 207.19274036 0.09648862 237.32760019 0.1372589 C264.12080901 0.17339324 290.91397181 0.19252208 317.70720482 0.19528866 C318.55921851 0.19538016 319.41123221 0.19547167 320.2890645 0.19556594 C322.86660284 0.19584237 325.44414118 0.19611386 328.02167952 0.19638497 C331.44491871 0.19674799 334.8681579 0.19712139 338.29139709 0.19750214 C339.55834089 0.19763748 339.55834089 0.19763748 340.8508795 0.19777555 C367.21960372 0.20075471 393.58831936 0.21821731 419.95703548 0.23818975 C428.71245784 0.24481208 437.46787884 0.2504987 446.22330332 0.25338006 C447.40731872 0.25377182 447.40731872 0.25377182 448.61525362 0.2541715 C449.40304298 0.25443063 450.19083234 0.25468975 451.00249411 0.25495673 C466.15163952 0.25994578 481.30075085 0.27111809 496.44987752 0.29625703 C504.04799244 0.30869476 511.64606578 0.31570268 519.24419112 0.31491465 C524.90365869 0.31495669 530.56306745 0.32540677 536.2225142 0.34009158 C538.52254566 0.34443718 540.82258643 0.34536118 543.12262042 0.3426655 C546.22965959 0.33953585 549.33642492 0.3485126 552.44343567 0.36076355 C553.3531195 0.35693876 554.26280333 0.35311397 555.20005333 0.34917328 C561.36756226 0.39251134 561.36756226 0.39251134 563.59587669 2.62082577 C563.78884012 5.08478645 563.85826883 7.43582352 563.83879662 9.90036678 C563.84069496 10.65007748 563.84259331 11.39978817 563.84454918 12.17221737 C563.84826148 14.65649445 563.83754732 17.14048082 563.82634544 19.62473202 C563.82515389 21.34583661 563.82470043 23.06694185 563.82495689 24.78804684 C563.8233913 28.39697998 563.81509518 32.00581403 563.80168724 35.61472225 C563.78468455 40.25106153 563.78087321 44.88729195 563.78163242 49.52365875 C563.78136111 53.07772018 563.77588628 56.63175758 563.76863098 60.18581104 C563.76543908 61.8959189 563.7634757 63.6060295 563.76273727 65.31614017 C563.76057993 67.70103417 563.75184932 70.0858104 563.74114037 72.47067928 C563.74159355 73.18394878 563.74204674 73.89721828 563.74251366 74.63210201 C563.7103518 79.50635066 563.7103518 79.50635066 562.59587669 80.62082577 C559.7618071 80.71984782 556.95208285 80.75257573 554.11753559 80.7438736 C553.21310183 80.74502744 552.30866806 80.74618128 551.37682721 80.74737009 C548.30618467 80.75004469 545.23559319 80.74550771 542.16495323 80.74108028 C539.95732186 80.74151581 537.74969053 80.74239038 535.54205948 80.74366945 C529.44447031 80.74591799 523.34689852 80.74188825 517.24931157 80.73689139 C511.35863054 80.73303307 505.46795149 80.73385057 499.57726952 80.73457323 C487.52161997 80.73588926 475.46597588 80.73253767 463.41032791 80.72655582 C451.4680936 80.7206454 439.52586156 80.71679121 427.58362579 80.71570301 C426.84199901 80.71563427 426.10037222 80.71556553 425.33627189 80.71549471 C421.57015682 80.71515639 417.80404175 80.714855 414.03792668 80.71456783 C387.33987526 80.7124656 360.64182682 80.70572316 333.94377708 80.69626522 C308.00171995 80.68708569 282.05966364 80.67999967 256.11760521 80.67575741 C255.31841682 80.67562588 254.51922844 80.67549436 253.69582222 80.67535884 C245.67028289 80.67404036 237.64474355 80.67276454 229.6192042 80.67151998 C213.26922963 80.66898355 196.91925512 80.6661623 180.56928062 80.66316891 C179.81748134 80.66303162 179.06568206 80.66289433 178.29110098 80.66275288 C128.05935828 80.65354714 77.82761734 80.6376806 27.59587669 80.62082577 C27.31751976 81.21758114 27.03916283 81.81433651 26.75237083 82.42917538 C25.00542317 85.73978318 22.49239817 88.38948472 20.03337669 91.18332577 C18.9386403 92.4428858 17.84489871 93.7033111 16.75212669 94.96457577 C15.94388451 95.89656796 15.94388451 95.89656796 15.11931419 96.84738827 C13.048037 99.25856736 11.03666661 101.71550486 9.03337669 104.18332577 C5.76809367 108.20440668 2.45029826 112.17427739 -0.90412331 116.12082577 C-4.27695919 120.0898612 -7.61588976 124.08099598 -10.90412331 128.12082577 C-14.65264976 132.72615827 -18.47496577 137.26287021 -22.32038307 141.78708553 C-25.1995765 145.18036686 -28.03616568 148.60350362 -30.84162331 152.05832577 C-34.79855748 156.92132001 -38.86848272 161.6778278 -42.96027565 166.42697811 C-46.75575697 170.84114343 -50.45690244 175.32415775 -54.12677956 179.84348202 C-56.68616384 182.96478944 -59.29006122 186.04532607 -61.90412331 189.12082577 C-65.27695919 193.0898612 -68.61588976 197.08099598 -71.90412331 201.12082577 C-75.65200129 205.72536157 -79.47395775 210.26101768 -83.31818581 214.78488827 C-86.21657154 218.20142117 -89.07567431 221.64587414 -91.90412331 225.12082577 C-95.65264976 229.72615827 -99.47496577 234.26287021 -103.32038307 238.78708553 C-106.1995765 242.18036686 -109.03616568 245.60350362 -111.84162331 249.05832577 C-115.31484842 253.32827636 -118.87213822 257.5157825 -122.46662331 261.68332577 C-125.85191142 265.60899347 -129.19048371 269.55199726 -132.40412331 273.62082577 C-136.11380546 278.31769985 -140.00156682 282.84520096 -143.90973854 287.376441 C-147.72391676 291.80617769 -151.44176024 296.30551068 -155.12677956 300.84348202 C-157.68616384 303.96478944 -160.29006122 307.04532607 -162.90412331 310.12082577 C-166.27695919 314.0898612 -169.61588976 318.08099598 -172.90412331 322.12082577 C-176.08972126 326.03375493 -179.32280254 329.9023708 -182.59162331 333.74582577 C-186.9137895 338.8292826 -191.17064373 343.96332224 -195.40412331 349.12082577 C-200.08098416 354.81848555 -204.79803512 360.47724799 -209.57428932 366.09177303 C-212.36975329 369.38283172 -215.1192745 372.70661676 -217.84162331 376.05832577 C-221.79855748 380.92132001 -225.86848272 385.6778278 -229.96027565 390.42697811 C-233.74368453 394.82710311 -237.43368941 399.29533732 -241.09162331 403.80051327 C-245.46177536 409.13032708 -249.93868822 414.37080957 -254.40412331 419.62082577 C-252.92719306 424.30505424 -250.17640486 427.51933693 -246.96662331 431.12082577 C-245.87512096 432.37051447 -244.78398295 433.62052147 -243.69318581 434.87082577 C-243.14178932 435.49859921 -242.59039284 436.12637264 -242.02228737 436.77316952 C-239.60379851 439.53465468 -237.21678222 442.32203873 -234.84162331 445.12082577 C-234.17006203 445.91130306 -234.17006203 445.91130306 -233.48493385 446.7177496 C-229.66325555 451.24839284 -226.02630974 455.91298097 -222.3926487 460.59470272 C-218.96905822 464.97579514 -215.33804014 469.11120708 -211.57599831 473.20676327 C-208.5192404 476.60438267 -205.66212093 480.1514524 -202.78693581 483.70285702 C-200.19656483 486.87499984 -197.55729464 490.00125871 -194.90412331 493.12082577 C-190.78288148 497.97022482 -186.73420517 502.87243948 -182.71662331 507.80832577 C-180.14265938 510.93882243 -177.52843244 514.03255037 -174.90412331 517.12082577 C-171.53133756 521.08990512 -168.19235814 525.0809944 -164.90412331 529.12082577 C-159.82236654 535.35999333 -154.61518225 541.48974538 -149.40412331 547.62082577 C-143.51373226 554.55117551 -137.65386146 561.4992777 -131.90802956 568.55051327 C-124.09557068 578.13022103 -116.24398032 587.6755068 -108.23444557 597.09128475 C-105.43874194 600.3824426 -102.68911702 603.70643835 -99.96662331 607.05832577 C-96.5113818 611.30474959 -92.97714496 615.47378871 -89.40412331 619.62082577 C-85.08483374 624.63402065 -80.85315212 629.70619897 -76.68146706 634.84348202 C-74.12208277 637.96478944 -71.5181854 641.04532607 -68.90412331 644.12082577 C-64.78304539 648.97036628 -60.73420848 653.87243541 -56.71662331 658.80832577 C-54.14265938 661.93882243 -51.52843244 665.03255037 -48.90412331 668.12082577 C-44.78310697 672.97041958 -40.73420977 677.87243383 -36.71662331 682.80832577 C-34.14265938 685.93882243 -31.52843244 689.03255037 -28.90412331 692.12082577 C-24.78310697 696.97041958 -20.73420977 701.87243383 -16.71662331 706.80832577 C-14.14265938 709.93882243 -11.52843244 713.03255037 -8.90412331 716.12082577 C-4.78310697 720.97041958 -0.73420977 725.87243383 3.28337669 730.80832577 C5.85734062 733.93882243 8.47156756 737.03255037 11.09587669 740.12082577 C14.46866244 744.08990512 17.80764186 748.0809944 21.09587669 752.12082577 C24.43241563 756.21675618 27.8095908 760.27467907 31.22087669 764.30832577 C31.8676638 765.07402889 31.8676638 765.07402889 32.52751732 765.85520077 C33.37768791 766.85796608 34.23741914 767.85271868 35.10736787 768.83837456 C36.59587669 770.62082577 36.59587669 770.62082577 37.97622073 772.65214449 C40.34874072 775.89447856 42.22090678 778.2249779 46.16652942 779.36090553 C49.33293008 779.64366169 52.41358805 779.67098037 55.59230614 779.61409664 C57.40106584 779.62941672 57.40106584 779.62941672 59.24636614 779.64504629 C62.58200451 779.66531192 65.91398908 779.64988518 69.24931598 779.61923468 C72.84987111 779.59491234 76.45018237 779.61686976 80.0507412 779.63318539 C86.28503714 779.65517307 92.51875356 779.64810622 98.75302315 779.62129688 C107.76765729 779.58266089 116.7818199 779.58914403 125.79649909 779.60675485 C140.42420716 779.63420196 155.05167783 779.62676553 169.67937279 779.59665585 C183.88447738 779.56750426 198.08947131 779.55230182 212.29460716 779.55759335 C213.17037939 779.55791315 214.04615163 779.55823295 214.94846241 779.55856245 C223.6521137 779.56199253 232.35576368 779.56746237 241.0594139 779.57288997 C245.27685983 779.5754784 249.49430586 779.57785573 253.71175194 779.58019161 C254.94678612 779.58092123 254.94678612 779.58092123 256.20677049 779.58166558 C267.63057734 779.58811058 279.05430089 779.58089857 290.47809514 779.56357442 C295.03635695 779.55717726 299.59462163 779.55332001 304.15288632 779.54959976 C308.39540141 779.54582488 312.63787956 779.53775703 316.88038077 779.52640396 C320.04070031 779.51918757 323.20102256 779.51830664 326.36134911 779.51644039 C327.49760023 779.51196154 328.63385134 779.50748269 329.80453432 779.50286812 C331.337223 779.5036794 331.337223 779.5036794 332.90087509 779.50450706 C334.23426707 779.50198926 334.23426707 779.50198926 335.59459627 779.49942058 C337.59587669 779.62082577 337.59587669 779.62082577 338.59587669 780.62082577 C340.53831607 798.97323313 339.54796411 817.84169186 339.11931419 836.24582577 C339.06907756 838.5244639 339.01918927 840.80310974 338.96965599 843.08176327 C338.84906826 848.59487918 338.72422086 854.10788524 338.59587669 859.62082577 C296.40320493 859.7352279 254.21055103 859.82335266 212.01775493 859.87615241 C207.03842417 859.88240607 202.05909372 859.88887767 197.07976341 859.89548397 C196.08845317 859.89679552 195.09714293 859.89810707 194.07579298 859.89945837 C178.0169472 859.92122495 161.95819076 859.96065338 145.89939801 860.00658975 C129.42605384 860.05331953 112.95275651 860.0811138 96.47934878 860.09126824 C86.31135215 860.09813462 76.14360804 860.11983443 65.97568913 860.1604081 C59.00660268 860.18680353 52.0376471 860.19483403 45.06851427 860.18833265 C41.0454183 860.18512475 37.02276408 860.19010013 32.99974632 860.21685314 C29.31685565 860.24116578 25.63470422 860.24242707 21.95177968 860.22532024 C19.98775446 860.22220363 18.02373808 860.24378686 16.05983865 860.26623231 C6.53027471 860.1850389 6.53027471 860.1850389 2.89852905 857.23558998 C2.13865377 856.37271779 1.3787785 855.5098456 0.59587669 854.62082577 C-0.11955299 853.81645077 -0.83498268 853.01207577 -1.57209206 852.18332577 C-2.23853737 851.33770077 -2.90498268 850.49207577 -3.59162331 849.62082577 C-6.96881596 845.39791596 -10.3974687 841.23582119 -13.90412331 837.12082577 C-18.02587802 832.27187017 -22.07405205 827.36919902 -26.09162331 822.43332577 C-28.66558723 819.30282911 -31.27981417 816.20910116 -33.90412331 813.12082577 C-38.02513964 808.27123196 -42.07403685 803.36921771 -46.09162331 798.43332577 C-48.66558723 795.30282911 -51.27981417 792.20910116 -53.90412331 789.12082577 C-58.02513964 784.27123196 -62.07403685 779.36921771 -66.09162331 774.43332577 C-68.66558723 771.30282911 -71.27981417 768.20910116 -73.90412331 765.12082577 C-78.02513964 760.27123196 -82.07403685 755.36921771 -86.09162331 750.43332577 C-89.12845101 746.73988667 -92.22373286 743.0978409 -95.32038307 739.454566 C-98.1995765 736.06128468 -101.03616568 732.63814791 -103.84162331 729.18332577 C-107.24887102 724.99259329 -110.7449874 720.89150286 -114.27912331 716.80832577 C-118.35471264 712.09600657 -122.27723389 707.2967374 -126.09162331 702.37082577 C-129.94539945 697.39542821 -133.97235006 692.67243707 -138.23224831 688.03488827 C-141.28900622 684.63726886 -144.14612568 681.09019914 -147.02131081 677.53879452 C-149.61168179 674.3666517 -152.25095197 671.24039283 -154.90412331 668.12082577 C-159.02536513 663.27142671 -163.07404144 658.36921206 -167.09162331 653.43332577 C-169.66558723 650.30282911 -172.27981417 647.20910116 -174.90412331 644.12082577 C-178.27690905 640.15174641 -181.61588847 636.16065713 -184.90412331 632.12082577 C-190.45072035 625.31094683 -196.14291561 618.62589243 -201.83625221 611.93869686 C-210.98843549 601.18776986 -210.98843549 601.18776986 -215.34162331 595.68332577 C-218.57909954 591.59667543 -221.93797682 587.63121554 -225.34162331 583.68332577 C-231.20142352 576.88654314 -236.88812567 569.96108658 -242.53693581 562.98801327 C-247.25711733 557.18506609 -252.07783577 551.48165794 -256.95978737 545.81516171 C-260.75551666 541.40090492 -264.45675758 536.91767217 -268.12677956 532.39816952 C-270.68616602 529.27685944 -273.29016453 526.19641579 -275.90412331 523.12082577 C-279.95549308 518.35037267 -283.94961617 513.53856487 -287.90412331 508.68723202 C-295.90595574 498.87248442 -303.94285211 489.09616441 -312.21589088 479.50827694 C-315.90736816 475.2232947 -319.49256179 470.86029994 -323.05646706 466.46848202 C-325.81360157 463.12413749 -328.63561209 459.84011532 -331.46662331 456.55832577 C-335.52530403 451.85096563 -339.4743058 447.08220698 -343.32599831 442.20285702 C-346.35771602 438.43600475 -349.49401811 434.75982575 -352.63678932 431.08542538 C-353.90054482 429.60399388 -355.15276908 428.11274729 -356.40412331 426.62082577 C-357.02674049 425.91699764 -357.64935768 425.21316952 -358.29084206 424.48801327 C-359.40412331 422.62082577 -359.40412331 422.62082577 -359.13776588 420.70944881 C-358.3304567 418.41110271 -357.39980231 417.14241244 -355.77912331 415.33566952 C-355.24206764 414.72835995 -354.70501198 414.12105038 -354.1516819 413.49533749 C-353.2866404 412.53651669 -353.2866404 412.53651669 -352.40412331 411.55832577 C-351.20762275 410.20651181 -350.01231492 408.85364125 -348.81818581 407.49973202 C-348.23198463 406.83731503 -347.64578346 406.17489803 -347.04181862 405.4924078 C-344.89577027 403.03987252 -342.83026061 400.528048 -340.77912331 397.99582577 C-337.53683319 393.99343833 -334.24024129 390.04482619 -330.90412331 386.12082577 C-327.54960235 382.17436453 -324.23190369 378.20440342 -320.96662331 374.18332577 C-317.00968913 369.32033153 -312.93976389 364.56382373 -308.84797096 359.81467342 C-305.05248964 355.4005081 -301.35134418 350.91749378 -297.68146706 346.39816952 C-295.12208277 343.27686209 -292.5181854 340.19632547 -289.90412331 337.12082577 C-286.53128742 333.15179034 -283.19235685 329.16065555 -279.90412331 325.12082577 C-276.15624533 320.51628996 -272.33428886 315.98063385 -268.49006081 311.45676327 C-265.59167508 308.04023037 -262.7325723 304.59577739 -259.90412331 301.12082577 C-256.15559685 296.51549326 -252.33328084 291.97878132 -248.48786354 287.454566 C-245.60867011 284.06128468 -242.77208094 280.63814791 -239.96662331 277.18332577 C-236.49339819 272.91337517 -232.93610839 268.72586904 -229.34162331 264.55832577 C-225.95633519 260.63265807 -222.6177629 256.68965428 -219.40412331 252.62082577 C-215.69444115 247.92395169 -211.80667979 243.39645058 -207.89850807 238.86521053 C-204.08432985 234.43547384 -200.36648637 229.93614086 -196.68146706 225.39816952 C-194.12208277 222.27686209 -191.5181854 219.19632547 -188.90412331 216.12082577 C-185.53128742 212.15179034 -182.19235685 208.16065555 -178.90412331 204.12082577 C-175.15624533 199.51628996 -171.33428886 194.98063385 -167.49006081 190.45676327 C-164.59167508 187.04023037 -161.7325723 183.59577739 -158.90412331 180.12082577 C-155.15624533 175.51628996 -151.33428886 170.98063385 -147.49006081 166.45676327 C-144.59167508 163.04023037 -141.7325723 159.59577739 -138.90412331 156.12082577 C-135.15559685 151.51549326 -131.33328084 146.97878132 -127.48786354 142.454566 C-124.60867011 139.06128468 -121.77208094 135.63814791 -118.96662331 132.18332577 C-115.00968913 127.32033153 -110.93976389 122.56382373 -106.84797096 117.81467342 C-103.05248964 113.4005081 -99.35134418 108.91749378 -95.68146706 104.39816952 C-93.12208277 101.27686209 -90.5181854 98.19632547 -87.90412331 95.12082577 C-84.53128742 91.15179034 -81.19235685 87.16065555 -77.90412331 83.12082577 C-74.15624533 78.51628996 -70.33428886 73.98063385 -66.49006081 69.45676327 C-63.59167508 66.04023037 -60.7325723 62.59577739 -57.90412331 59.12082577 C-54.15559685 54.51549326 -50.33328084 49.97878132 -46.48786354 45.454566 C-43.60867011 42.06128468 -40.77208094 38.63814791 -37.96662331 35.18332577 C-34.49339534 30.91337167 -30.9360339 26.72593699 -27.34162331 22.55832577 C-19.00786266 13.23120661 -19.00786266 13.23120661 -11.88445914 3.02315277 C-8.18943015 -0.55566418 -4.96825811 -0.06897014 0 0 Z " fill="#8B1637" transform="translate(367.4041233062744,32.37917423248291)"/>
<path d="M0 0 C1.72377862 -0.00946191 1.72377862 -0.00946191 3.48238105 -0.01911497 C4.75579346 -0.02097697 6.02920588 -0.02283896 7.34120655 -0.02475739 C8.69912963 -0.03020175 10.05705108 -0.03606498 11.4149707 -0.0423131 C15.15945147 -0.05819555 18.90392567 -0.06768972 22.64842975 -0.07607794 C25.85699787 -0.08407219 29.06554818 -0.09576477 32.2741045 -0.10749274 C43.76819455 -0.14943443 55.26230552 -0.17660858 66.75644398 -0.20114899 C67.66325634 -0.20312389 68.5700687 -0.20509879 69.50436023 -0.20713353 C87.50331946 -0.24629111 105.50228555 -0.28000593 123.50127411 -0.30221558 C127.45994737 -0.30718506 131.41862053 -0.31222936 135.37729359 -0.31735992 C136.36122929 -0.3186306 137.34516498 -0.31990127 138.35891692 -0.32121044 C154.30061829 -0.34257387 170.24211362 -0.39157119 186.18371131 -0.45160407 C202.54299584 -0.5127029 218.90217403 -0.54740029 235.26157123 -0.55668879 C244.44989851 -0.56260373 253.63787681 -0.58039571 262.82609081 -0.62807465 C270.65092003 -0.66864087 278.47534336 -0.68556664 286.30027308 -0.67142183 C290.29328725 -0.66494702 294.28543662 -0.66985446 298.27831745 -0.70529556 C301.93490218 -0.73749117 305.59001143 -0.73730068 309.24663351 -0.71147853 C311.19394937 -0.7061013 313.1412664 -0.7352302 315.08835238 -0.76563025 C320.82438138 -0.69380042 324.60108681 -0.61306071 328.8150959 3.53327942 C329.7829672 4.71000625 330.72215688 5.91140974 331.61972523 7.14260101 C332.72380726 8.42844086 332.72380726 8.42844086 333.85019398 9.74025726 C334.49601429 10.5536557 335.1418346 11.36705414 335.80722523 12.20510101 C339.28862218 16.53172677 342.857638 20.7602105 346.49472523 24.95510101 C350.5707454 29.66702701 354.49285658 34.4667162 358.30722523 39.39260101 C362.16214071 44.36946951 366.19025782 49.09382233 370.45175648 53.73244476 C373.48863391 57.10857697 376.32099856 60.63786896 379.17831898 64.16603851 C381.90503006 67.49044467 384.69052545 70.75858136 387.49472523 74.01760101 C394.76472917 82.46999193 402.02452183 90.92835798 409.05722523 99.58010101 C413.01480711 104.44389126 417.08514969 109.20141333 421.17807484 113.95095062 C424.95306914 118.34060451 428.62700984 122.80374873 432.27597523 127.29885101 C435.01274571 130.61946587 437.81075473 133.88306883 440.61972523 137.14260101 C444.91945236 142.13200868 449.12457931 147.18481257 453.27597523 152.29885101 C456.51936286 156.23416134 459.8511932 160.09079403 463.18051624 163.95339203 C466.19217532 167.45495403 469.15031473 170.99046658 472.05722523 174.58010101 C475.65608721 179.01499627 479.36708411 183.33824352 483.11972523 187.64260101 C487.63449807 192.82190273 492.05210276 198.06095716 496.37753773 203.40041351 C498.9222603 206.51260035 501.51583062 209.5799335 504.11972523 212.64260101 C507.45589246 216.56655821 510.75243647 220.51521525 513.99472523 224.51760101 C518.16128946 229.63993625 522.48173804 234.61677479 526.82016468 239.59304047 C530.74222062 244.10200059 534.55004387 248.68958166 538.31113148 253.33400726 C541.03316707 256.64558695 543.82115662 259.89570101 546.61972523 263.14260101 C550.94150705 268.15847076 555.17451874 273.23435592 559.35019398 278.37306976 C563.70478317 283.68701768 568.17050958 288.90786867 572.61972523 294.14260101 C577.81191544 300.25148137 583.00096103 306.35770742 588.05722523 312.58010101 C592.46885578 317.9983068 597.01296165 323.29530951 601.56894398 328.59181976 C608.59123462 336.75659938 615.51648978 344.99280404 622.31894398 353.34181976 C628.17872456 360.47503314 634.18879847 367.48321886 640.20859241 374.4814682 C644.99969259 380.05230242 649.71605823 385.67016037 654.35019398 391.37306976 C658.24427081 396.12504992 662.23024114 400.79911905 666.20810413 405.48097992 C669.89950969 409.82613838 673.58397811 414.1771418 677.26132679 418.53420258 C678.17639774 419.61768342 679.09243339 420.70035014 680.00937366 421.78224945 C681.3617507 423.37895149 682.70993379 424.97910703 684.05722523 426.58010101 C684.83968616 427.50693695 685.6221471 428.43377289 686.42831898 429.38869476 C691.01944006 435.15828542 691.01944006 435.15828542 692.61972523 438.14260101 C691.8251462 442.50944709 689.05542455 445.12394914 686.05722523 448.26760101 C681.84518143 452.76029561 677.90418491 457.39983381 674.03378773 462.19338226 C671.28110649 465.55628571 668.45790754 468.8518967 665.61972523 472.14260101 C662.06500978 476.26711807 658.55179737 480.41468606 655.11972523 484.64260101 C651.18593953 489.4885689 647.13524763 494.22358629 643.06113148 498.95119476 C640.03014239 502.47578004 637.04979941 506.03308934 634.11972523 509.64260101 C630.18593953 514.4885689 626.13524763 519.22358629 622.06113148 523.95119476 C619.03014239 527.47578004 616.04979941 531.03308934 613.11972523 534.64260101 C608.7325962 540.04336273 604.20749111 545.31727802 599.67050648 550.59181976 C593.42545202 557.85291105 587.22341373 565.1481353 581.18222523 572.58010101 C577.22464335 577.44389126 573.15430076 582.20141333 569.06137562 586.95095062 C566.03027233 590.4755902 563.04987206 594.03299984 560.11972523 597.64260101 C555.7325962 603.04336273 551.20749111 608.31727802 546.67050648 613.59181976 C540.42545202 620.85291105 534.22341373 628.1481353 528.18222523 635.58010101 C523.77059468 640.9983068 519.2264888 646.29530951 514.67050648 651.59181976 C508.42545202 658.85291105 502.22341373 666.1481353 496.18222523 673.58010101 C492.22464335 678.44389126 488.15430076 683.20141333 484.06137562 687.95095062 C481.03027233 691.4755902 478.04987206 695.03299984 475.11972523 698.64260101 C471.18593953 703.4885689 467.13524763 708.22358629 463.06113148 712.95119476 C460.03014239 716.47578004 457.04979941 720.03308934 454.11972523 723.64260101 C449.7325962 729.04336273 445.20749111 734.31727802 440.67050648 739.59181976 C434.42545202 746.85291105 428.22341373 754.1481353 422.18222523 761.58010101 C417.77059468 766.9983068 413.2264888 772.29530951 408.67050648 777.59181976 C402.42545202 784.85291105 396.22341373 792.1481353 390.18222523 799.58010101 C385.77059468 804.9983068 381.2264888 810.29530951 376.67050648 815.59181976 C370.42545202 822.85291105 364.22341373 830.1481353 358.18222523 837.58010101 C345.06317761 853.69914863 345.06317761 853.69914863 340.61972523 858.14260101 C337.61008324 858.24262935 334.62332351 858.27618671 331.61318684 858.26844215 C330.65164796 858.26989559 329.69010909 858.27134904 328.69943267 858.27284652 C325.43452621 858.2765345 322.16966563 858.27300724 318.90475941 858.26958466 C316.55759739 858.27073537 314.21043555 858.27232256 311.8632741 858.2743119 C306.73796909 858.27763227 301.61267363 858.27780635 296.48736858 858.27526474 C288.86609292 858.27149559 281.2448262 858.27340903 273.62355061 858.27647305 C260.01510981 858.28175008 246.4066737 858.28127791 232.79823245 858.27839413 C220.88956267 858.27588281 208.98089461 858.2752199 197.07222462 858.27641678 C195.88929844 858.27653136 195.88929844 858.27653136 194.68247476 858.27664825 C191.48156429 858.27695957 188.28065383 858.27727796 185.07974337 858.27760801 C155.02648521 858.28066996 124.97323005 858.27788888 94.91997235 858.27251112 C68.19440009 858.26776519 41.4688326 858.2681898 14.74326038 858.27297211 C-15.25352886 858.27832177 -45.25031546 858.28045285 -75.24710512 858.27735984 C-78.44232813 858.27703911 -81.63755115 858.27672627 -84.83277416 858.27641678 C-86.01297221 858.27629816 -86.01297221 858.27629816 -87.21701265 858.27617715 C-99.12088578 858.27503762 -111.02475701 858.27637377 -122.92862988 858.27889633 C-136.45805455 858.281749 -149.9874738 858.28105489 -163.5168978 858.27561559 C-171.09742698 858.27266884 -178.6779444 858.27250262 -186.25847329 858.27626176 C-191.90318191 858.27875324 -197.54787823 858.27607137 -203.19258493 858.27128719 C-205.48798143 858.27016185 -207.78337948 858.27075672 -210.07877499 858.27316298 C-213.17711863 858.27616403 -216.2753963 858.27312554 -219.37373638 858.26844215 C-220.73867592 858.2719539 -220.73867592 858.2719539 -222.13119 858.2755366 C-228.26612444 858.25675135 -228.26612444 858.25675135 -229.38027477 857.14260101 C-229.47526123 854.70864083 -229.50585894 852.30317149 -229.49380016 849.86891937 C-229.49394619 849.10799484 -229.49409222 848.34707031 -229.49424267 847.56308746 C-229.49354339 845.03617803 -229.48575032 842.50934139 -229.47793102 839.98244476 C-229.4760669 838.23509512 -229.47464297 836.48774495 -229.4736433 834.74039459 C-229.4698177 830.13228167 -229.45998706 825.52420006 -229.44893932 820.91609955 C-229.43872611 816.21751581 -229.43414588 811.51892702 -229.4291029 806.82033539 C-229.41836483 797.59441014 -229.4012879 788.36850818 -229.38027477 779.14260101 C-226.10097585 777.50295155 -222.46989686 778.01530024 -218.86649513 778.03186893 C-217.52228851 778.03209955 -217.52228851 778.03209955 -216.1509262 778.03233483 C-213.11443102 778.03405342 -210.07799693 778.04294083 -207.0415144 778.05167389 C-204.85593402 778.05426527 -202.67035304 778.05639198 -200.48477179 778.0580911 C-195.71538697 778.06273058 -190.94602068 778.07050368 -186.17664433 778.08060265 C-178.41791564 778.09694419 -170.65918785 778.10638013 -162.90044689 778.11464691 C-160.18933709 778.11760939 -157.47822734 778.12062335 -154.76711762 778.12366092 C-153.74498326 778.12480037 -153.74498326 778.12480037 -152.70219972 778.12596284 C-147.74990004 778.1315811 -142.79760224 778.1382049 -137.84530437 778.14522469 C-117.8836464 778.173258 -97.92202512 778.18571322 -77.9603479 778.18655732 C-75.69650507 778.18665341 -73.43266225 778.18679077 -71.16881942 778.1869371 C-58.84296244 778.18768915 -46.51710546 778.1876691 -34.19124846 778.18743701 C-23.07953381 778.18725439 -11.96781941 778.18776823 -0.85610485 778.18923187 C-0.06408598 778.18932751 0.72793288 778.18942314 1.54395232 778.18952167 C27.22220087 778.19283817 52.90031146 778.22607166 78.5785124 778.2737588 C104.970234 778.32259194 131.36178377 778.33846895 157.75354364 778.3139228 C161.48071599 778.31047797 165.20788857 778.30742445 168.93506145 778.30461693 C169.66861455 778.30405451 170.40216765 778.30349209 171.15794963 778.30291263 C182.96693693 778.2948568 194.77559794 778.32179824 206.58450884 778.3620028 C218.45428463 778.40171041 230.32359802 778.40449781 242.19339836 778.3719318 C248.62514125 778.35539364 255.05580688 778.35524738 261.48744869 778.39857292 C267.37468844 778.43788526 273.26001317 778.43123456 279.14720791 778.38787048 C281.27785583 778.3803262 283.40864453 778.38973078 285.53912211 778.41770888 C296.74393526 778.89554858 296.74393526 778.89554858 306.83664501 774.93564308 C309.11419812 772.44379429 310.88416219 770.02824737 312.61972523 767.14260101 C313.42023304 766.18869476 314.22074085 765.23478851 315.04550648 764.25197601 C315.66812366 763.47338226 316.29074085 762.69478851 316.93222523 761.89260101 C320.42405231 757.57809216 323.99548942 753.34550591 327.61972523 749.14260101 C331.17439737 745.0180449 334.68765153 740.87051789 338.11972523 736.64260101 C342.50685425 731.24183929 347.03195934 725.96792401 351.56894398 720.69338226 C357.81399844 713.43229098 364.01603672 706.13706672 370.05722523 698.70510101 C374.01480711 693.84131076 378.08514969 689.0837887 382.17807484 684.3342514 C385.20917812 680.80961183 388.18957839 677.25220219 391.11972523 673.64260101 C395.50685425 668.24183929 400.03195934 662.96792401 404.56894398 657.69338226 C410.81399844 650.43229098 417.01603672 643.13706672 423.05722523 635.70510101 C427.01480711 630.84131076 431.08514969 626.0837887 435.17807484 621.3342514 C438.20917812 617.80961183 441.18957839 614.25220219 444.11972523 610.64260101 C448.50685425 605.24183929 453.03195934 599.96792401 457.56894398 594.69338226 C463.81399844 587.43229098 470.01603672 580.13706672 476.05722523 572.70510101 C480.01545479 567.84051477 484.08621584 563.08197924 488.1802721 558.33205414 C491.1920451 554.8304375 494.15024214 551.29482509 497.05722523 547.70510101 C500.65608721 543.27020576 504.36708411 538.9469585 508.11972523 534.64260101 C512.63810482 529.45916167 517.05768235 524.21455552 521.38925648 518.87306976 C527.2082016 511.74970262 533.21055392 504.77680668 539.20834827 497.80397797 C543.97716075 492.25918202 548.66628314 486.6649572 553.27597523 480.98635101 C556.01274661 477.66573507 558.81078908 474.40216393 561.61972523 471.14260101 C565.92697662 466.1434868 570.14752695 461.08607132 574.30722523 455.96291351 C578.67737728 450.6330997 583.15429015 445.39261721 587.61972523 440.14260101 C586.10105825 436.74517076 584.11693521 434.12641817 581.74472523 431.26760101 C580.94292835 430.30080414 580.14113148 429.33400726 579.31503773 428.33791351 C575.93020914 424.30979159 572.49783067 420.32242907 569.06357288 416.33644867 C565.28746574 411.94637936 561.6130929 407.48225684 557.96347523 402.98635101 C555.22670474 399.66573616 552.42869572 396.40213319 549.61972523 393.14260101 C545.3199981 388.15319334 541.11487114 383.10038946 536.96347523 377.98635101 C534.22670474 374.66573616 531.42869572 371.40213319 528.61972523 368.14260101 C524.3199981 363.15319334 520.11487114 358.10038946 515.96347523 352.98635101 C513.22670474 349.66573616 510.42869572 346.40213319 507.61972523 343.14260101 C504.06519362 339.01791897 500.5518038 334.87052389 497.11972523 330.64260101 C492.7325962 325.24183929 488.20749111 319.96792401 483.67050648 314.69338226 C477.42545202 307.43229098 471.22341373 300.13706672 465.18222523 292.70510101 C461.22464335 287.84131076 457.15430076 283.0837887 453.06137562 278.3342514 C449.28638132 273.94459751 445.61244061 269.4814533 441.96347523 264.98635101 C439.22670474 261.66573616 436.42869572 258.40213319 433.61972523 255.14260101 C429.3199981 250.15319334 425.11487114 245.10038946 420.96347523 239.98635101 C418.22670474 236.66573616 415.42869572 233.40213319 412.61972523 230.14260101 C408.3199981 225.15319334 404.11487114 220.10038946 399.96347523 214.98635101 C397.22670474 211.66573616 394.42869572 208.40213319 391.61972523 205.14260101 C387.3199981 200.15319334 383.11487114 195.10038946 378.96347523 189.98635101 C375.7200876 186.05104069 372.38825725 182.194408 369.05893421 178.33181 C366.04727513 174.830248 363.08913573 171.29473545 360.18222523 167.70510101 C356.58336494 163.27020784 352.87240458 158.94692316 349.11972523 154.64260101 C344.62469446 149.48680201 340.23349472 144.26749434 335.92831898 138.95119476 C333.20628432 135.63961622 330.41832792 132.38947043 327.61972523 129.14260101 C323.31994529 124.15324008 319.11486961 119.10038757 314.96347523 113.98635101 C312.22670318 110.66573426 309.42863512 107.40218764 306.61972523 104.14260101 C292.44531807 87.68888091 292.44531807 87.68888091 290.2258606 83.53198624 C286.01950254 79.67546753 281.49252614 80.45481759 275.98405933 80.51009369 C274.78078281 80.50244358 273.57750628 80.49479347 272.33776683 80.48691154 C268.99618134 80.47067681 265.65598284 80.4768547 262.31448281 80.49238896 C258.71185872 80.50369538 255.10936269 80.48620128 251.50676441 80.47214508 C245.26437186 80.45169722 239.02218418 80.44941415 232.77976894 80.45932007 C223.75320817 80.47353062 214.72686746 80.45929528 205.70032903 80.43789813 C191.05439217 80.40386131 176.40852086 80.39137082 161.76254749 80.39308929 C147.53694333 80.39469897 133.31138337 80.38867826 119.08578968 80.37062836 C118.20922928 80.36952038 117.33266888 80.36841241 116.42954604 80.36727086 C106.86727652 80.35499234 97.30501012 80.34088004 87.74274445 80.32593155 C85.20921616 80.32200064 82.67568787 80.31807741 80.14215956 80.31416431 C78.47256077 80.31157162 76.80296202 80.30894805 75.13336333 80.3062931 C64.49177019 80.28950687 53.85021165 80.28078527 43.20860541 80.28061628 C37.84615336 80.28040756 32.48370518 80.27691438 27.1212552 80.27236661 C22.87150669 80.26900635 18.62178689 80.26982025 14.37203931 80.27384098 C11.20616921 80.27556873 8.04030787 80.27089841 4.87444019 80.26717377 C3.16699398 80.2708225 3.16699398 80.2708225 1.42505389 80.27454495 C-0.11040993 80.27095853 -0.11040993 80.27095853 -1.67689323 80.26729965 C-2.56744744 80.26735197 -3.45800165 80.26740429 -4.37554234 80.2674582 C-6.38027477 80.14260101 -6.38027477 80.14260101 -7.38027477 79.14260101 C-7.47526123 76.70864083 -7.50585894 74.30317149 -7.49380016 71.86891937 C-7.49394619 71.10799484 -7.49409222 70.34707031 -7.49424267 69.56308746 C-7.49354339 67.03617803 -7.48575032 64.50934139 -7.47793102 61.98244476 C-7.4760669 60.23509512 -7.47464297 58.48774495 -7.4736433 56.74039459 C-7.4698177 52.13228167 -7.45998706 47.52420006 -7.44893932 42.91609955 C-7.43872611 38.21751581 -7.43414588 33.51892702 -7.4291029 28.82033539 C-7.41836483 19.59441014 -7.4012879 10.36850818 -7.38027477 1.14260101 C-4.78659062 -0.15424107 -2.90600822 0.00994421 0 0 Z " fill="#8B1637" transform="translate(507.38027477264404,413.8573989868164)"/>
</svg>
